<svg width="27" height="33" fill="none" xmlns="http://www.w3.org/2000/svg"><g filter="url(#filter0_d)" fill="#4AF6CD"><path d="M9.248 15.744a2.702 2.702 0 01-2.7-2.7.575.575 0 011.15 0c0 .856.696 1.553 1.552 1.553.855 0 1.553-.697 1.553-1.552a.575.575 0 011.148 0 2.708 2.708 0 01-2.703 2.699z" stroke="#4AF6CD" stroke-width=".5"/><path d="M13.5 15.744a2.702 2.702 0 01-2.7-2.7.575.575 0 011.15 0c0 .856.697 1.553 1.552 1.553.855 0 1.553-.697 1.553-1.552a.575.575 0 011.148 0 2.708 2.708 0 01-2.703 2.699z" stroke="#4AF6CD" stroke-width=".5"/><path d="M17.752 15.744a2.702 2.702 0 01-2.7-2.7.575.575 0 011.15 0c0 .856.696 1.553 1.552 1.553.855 0 1.553-.697 1.553-1.552a.575.575 0 011.148 0 2.708 2.708 0 01-2.703 2.699z" stroke="#4AF6CD" stroke-width=".5"/><path fill-rule="evenodd" clip-rule="evenodd" d="M4.422 15.069c0 5.005 4.072 9.077 9.078 9.077 5.006 0 9.078-4.071 9.08-9.077C22.58 8.237 14.237.795 13.881.48a.573.573 0 00-.74-.016c-.357.287-8.719 7.127-8.719 14.604zm9.062-13.391zm0 0c-1.62 1.42-7.916 7.324-7.916 13.39 0 4.373 3.557 7.93 7.93 7.93 4.373 0 7.93-3.557 7.93-7.93.001-5.543-6.338-11.876-7.944-13.39z"/><path d="M13.5 24.146l.113-.223-.054-.026H13.5v.25zm0 0l-.112.224.053.027h.06v-.25zm9.08-9.077h.25-.25zM13.881.48l-.166.187.166-.187zm-.74-.016l.156.195h.001l-.157-.195zm.343 1.212l.165.189.502-.439h-.667v.25zm0 0v-.25h-.629l.457.432.172-.182zm7.943 13.391h-.25.25zm-7.927 8.83c-4.868 0-8.828-3.96-8.828-8.828h-.5c0 5.143 4.184 9.327 9.328 9.327v-.5zm.113.026l-.226.447.226-.447zm8.717-8.854c-.002 4.867-3.962 8.828-8.83 8.828v.5c5.144 0 9.328-4.184 9.33-9.328h-.5zM13.716.668c.172.152 2.334 2.08 4.45 4.815 2.125 2.747 4.164 6.258 4.164 9.586h.5c0-3.505-2.132-7.13-4.268-9.891C16.418 2.406 14.23.455 14.047.293l-.331.375zm-.418-.009c.123-.1.3-.095.417.009l.332-.374A.823.823 0 0012.983.27l.315.388zM4.672 15.07c0-3.652 2.046-7.175 4.171-9.843 2.12-2.66 4.283-4.429 4.454-4.566l-.313-.39c-.186.15-2.381 1.944-4.532 4.645-2.146 2.693-4.28 6.329-4.28 10.154h.5zM13.32 1.49l.328.377-.328-.377zm.164.438v-.5.5zm.172-.431l-.344.363.344-.363zm-.337-.006c-.816.716-2.81 2.56-4.601 4.992-1.787 2.426-3.4 5.472-3.4 8.586h.5c0-2.953 1.536-5.892 3.302-8.29 1.762-2.39 3.726-4.208 4.529-4.912l-.33-.376zm-8 13.578c0 4.511 3.668 8.18 8.179 8.18v-.5c-4.235 0-7.68-3.445-7.68-7.68h-.5zm8.179 8.18c4.51 0 8.18-3.67 8.18-8.18h-.5c0 4.235-3.445 7.68-7.68 7.68v.5zm8.18-8.18c0-2.854-1.625-5.879-3.417-8.353-1.798-2.483-3.797-4.457-4.605-5.22l-.343.365c.797.751 2.77 2.701 4.543 5.149 1.78 2.457 3.322 5.37 3.321 8.059h.5z"/></g><defs><filter id="filter0_d" x=".172" y=".087" width="26.658" height="32.309" filterUnits="userSpaceOnUse" color-interpolation-filters="sRGB"><feFlood flood-opacity="0" result="BackgroundImageFix"/><feColorMatrix in="SourceAlpha" values="0 0 0 0 0 0 0 0 0 0 0 0 0 0 0 0 0 0 127 0"/><feOffset dy="4"/><feGaussianBlur stdDeviation="2"/><feColorMatrix values="0 0 0 0 0 0 0 0 0 0 0 0 0 0 0 0 0 0 0.25 0"/><feBlend in2="BackgroundImageFix" result="effect1_dropShadow"/><feBlend in="SourceGraphic" in2="effect1_dropShadow" result="shape"/></filter></defs></svg>